<mxfile host="app.diagrams.net" modified="2023-10-09T15:42:03.877Z" agent="Mozilla/5.0 (X11; Linux x86_64) AppleWebKit/537.36 (KHTML, like Gecko) Chrome/117.0.0.0 Safari/537.36 Edg/117.0.2045.47" etag="Ns6Lh1KdxRbMmdb2YgrU" version="22.0.4" type="github">
  <diagram name="Página-1" id="sPDoId9NAIMN18nsPKQ9">
    <mxGraphModel dx="1174" dy="659" grid="1" gridSize="10" guides="1" tooltips="1" connect="1" arrows="1" fold="1" page="1" pageScale="1" pageWidth="827" pageHeight="1169" math="0" shadow="0">
      <root>
        <mxCell id="0" />
        <mxCell id="1" parent="0" />
        <mxCell id="kJ7FNMAC1oahVJ6lY4T5-31" style="rounded=0;orthogonalLoop=1;jettySize=auto;html=1;entryX=0;entryY=0.5;entryDx=0;entryDy=0;endArrow=none;endFill=0;" edge="1" parent="1" source="kJ7FNMAC1oahVJ6lY4T5-1" target="kJ7FNMAC1oahVJ6lY4T5-27">
          <mxGeometry relative="1" as="geometry" />
        </mxCell>
        <mxCell id="kJ7FNMAC1oahVJ6lY4T5-48" style="edgeStyle=orthogonalEdgeStyle;rounded=0;orthogonalLoop=1;jettySize=auto;html=1;entryX=0;entryY=0.5;entryDx=0;entryDy=0;" edge="1" parent="1" source="kJ7FNMAC1oahVJ6lY4T5-1" target="kJ7FNMAC1oahVJ6lY4T5-49">
          <mxGeometry relative="1" as="geometry">
            <mxPoint x="410" y="290" as="targetPoint" />
          </mxGeometry>
        </mxCell>
        <mxCell id="kJ7FNMAC1oahVJ6lY4T5-1" value="Vendedor" style="shape=umlActor;verticalLabelPosition=bottom;verticalAlign=top;html=1;outlineConnect=0;" vertex="1" parent="1">
          <mxGeometry x="100" y="260" width="30" height="60" as="geometry" />
        </mxCell>
        <mxCell id="kJ7FNMAC1oahVJ6lY4T5-45" style="edgeStyle=orthogonalEdgeStyle;rounded=0;orthogonalLoop=1;jettySize=auto;html=1;endArrow=none;endFill=0;" edge="1" parent="1" source="kJ7FNMAC1oahVJ6lY4T5-2" target="kJ7FNMAC1oahVJ6lY4T5-44">
          <mxGeometry relative="1" as="geometry" />
        </mxCell>
        <mxCell id="kJ7FNMAC1oahVJ6lY4T5-2" value="Comprador" style="shape=umlActor;verticalLabelPosition=bottom;verticalAlign=top;html=1;outlineConnect=0;" vertex="1" parent="1">
          <mxGeometry x="265" y="555" width="30" height="60" as="geometry" />
        </mxCell>
        <mxCell id="kJ7FNMAC1oahVJ6lY4T5-3" value="&amp;lt;&amp;lt;CRUD&amp;gt;&amp;gt;&lt;br&gt;&amp;nbsp;cadastrados&amp;nbsp;" style="ellipse;whiteSpace=wrap;html=1;" vertex="1" parent="1">
          <mxGeometry x="220" y="60" width="120" height="80" as="geometry" />
        </mxCell>
        <mxCell id="kJ7FNMAC1oahVJ6lY4T5-21" style="edgeStyle=orthogonalEdgeStyle;rounded=0;orthogonalLoop=1;jettySize=auto;html=1;entryX=0;entryY=0.5;entryDx=0;entryDy=0;endArrow=none;endFill=0;" edge="1" parent="1" source="kJ7FNMAC1oahVJ6lY4T5-11" target="kJ7FNMAC1oahVJ6lY4T5-3">
          <mxGeometry relative="1" as="geometry" />
        </mxCell>
        <mxCell id="kJ7FNMAC1oahVJ6lY4T5-11" value="Gerente&amp;nbsp;" style="shape=umlActor;verticalLabelPosition=bottom;verticalAlign=top;html=1;outlineConnect=0;" vertex="1" parent="1">
          <mxGeometry x="100" y="70" width="30" height="60" as="geometry" />
        </mxCell>
        <mxCell id="kJ7FNMAC1oahVJ6lY4T5-17" value="SALARIO&amp;nbsp;&lt;br&gt;NOME&lt;br&gt;ESTOQUE" style="shape=note;whiteSpace=wrap;html=1;backgroundOutline=1;darkOpacity=0.05;" vertex="1" parent="1">
          <mxGeometry x="470" y="50" width="80" height="100" as="geometry" />
        </mxCell>
        <mxCell id="kJ7FNMAC1oahVJ6lY4T5-24" value="" style="endArrow=none;dashed=1;html=1;dashPattern=1 1;strokeWidth=2;rounded=0;exitX=1;exitY=0.5;exitDx=0;exitDy=0;entryX=0;entryY=0.5;entryDx=0;entryDy=0;entryPerimeter=0;" edge="1" parent="1" source="kJ7FNMAC1oahVJ6lY4T5-3" target="kJ7FNMAC1oahVJ6lY4T5-17">
          <mxGeometry width="50" height="50" relative="1" as="geometry">
            <mxPoint x="300" y="360" as="sourcePoint" />
            <mxPoint x="350" y="310" as="targetPoint" />
          </mxGeometry>
        </mxCell>
        <mxCell id="kJ7FNMAC1oahVJ6lY4T5-27" value="Visualizar as informações&amp;nbsp;" style="ellipse;whiteSpace=wrap;html=1;" vertex="1" parent="1">
          <mxGeometry x="220" y="210" width="120" height="80" as="geometry" />
        </mxCell>
        <mxCell id="kJ7FNMAC1oahVJ6lY4T5-38" value="" style="endArrow=block;dashed=1;html=1;dashPattern=1 1;strokeWidth=2;rounded=0;exitX=0.5;exitY=1;exitDx=0;exitDy=0;entryX=0.5;entryY=0;entryDx=0;entryDy=0;startArrow=none;startFill=0;endFill=0;" edge="1" parent="1" source="kJ7FNMAC1oahVJ6lY4T5-3" target="kJ7FNMAC1oahVJ6lY4T5-27">
          <mxGeometry width="50" height="50" relative="1" as="geometry">
            <mxPoint x="350" y="110" as="sourcePoint" />
            <mxPoint x="480" y="110" as="targetPoint" />
            <Array as="points" />
          </mxGeometry>
        </mxCell>
        <mxCell id="kJ7FNMAC1oahVJ6lY4T5-39" value="&amp;lt;&amp;lt;INCLUDE&amp;gt;&amp;gt;" style="edgeLabel;html=1;align=center;verticalAlign=middle;resizable=0;points=[];" vertex="1" connectable="0" parent="kJ7FNMAC1oahVJ6lY4T5-38">
          <mxGeometry x="-0.1062" y="-4" relative="1" as="geometry">
            <mxPoint as="offset" />
          </mxGeometry>
        </mxCell>
        <mxCell id="kJ7FNMAC1oahVJ6lY4T5-44" value="Visualizar o estoque" style="ellipse;whiteSpace=wrap;html=1;" vertex="1" parent="1">
          <mxGeometry x="220" y="440" width="120" height="80" as="geometry" />
        </mxCell>
        <mxCell id="kJ7FNMAC1oahVJ6lY4T5-46" value="Pede um produto&amp;nbsp;" style="ellipse;whiteSpace=wrap;html=1;" vertex="1" parent="1">
          <mxGeometry x="509" y="440" width="120" height="80" as="geometry" />
        </mxCell>
        <mxCell id="kJ7FNMAC1oahVJ6lY4T5-49" value="Confirma o pedido" style="ellipse;whiteSpace=wrap;html=1;" vertex="1" parent="1">
          <mxGeometry x="509" y="250" width="120" height="80" as="geometry" />
        </mxCell>
        <mxCell id="kJ7FNMAC1oahVJ6lY4T5-54" value="" style="endArrow=block;dashed=1;html=1;dashPattern=1 1;strokeWidth=2;rounded=0;exitX=0.5;exitY=0;exitDx=0;exitDy=0;entryX=0.5;entryY=1;entryDx=0;entryDy=0;startArrow=none;startFill=0;endFill=0;" edge="1" parent="1" source="kJ7FNMAC1oahVJ6lY4T5-46" target="kJ7FNMAC1oahVJ6lY4T5-49">
          <mxGeometry width="50" height="50" relative="1" as="geometry">
            <mxPoint x="679" y="350" as="sourcePoint" />
            <mxPoint x="679" y="420" as="targetPoint" />
            <Array as="points" />
          </mxGeometry>
        </mxCell>
        <mxCell id="kJ7FNMAC1oahVJ6lY4T5-55" value="&amp;lt;&amp;lt;INCLUDE&amp;gt;&amp;gt;" style="edgeLabel;html=1;align=center;verticalAlign=middle;resizable=0;points=[];" vertex="1" connectable="0" parent="kJ7FNMAC1oahVJ6lY4T5-54">
          <mxGeometry x="-0.1062" y="-4" relative="1" as="geometry">
            <mxPoint as="offset" />
          </mxGeometry>
        </mxCell>
        <mxCell id="kJ7FNMAC1oahVJ6lY4T5-57" value="" style="endArrow=block;dashed=1;html=1;dashPattern=1 1;strokeWidth=2;rounded=0;startArrow=none;startFill=0;endFill=0;exitX=0;exitY=0.5;exitDx=0;exitDy=0;" edge="1" parent="1" source="kJ7FNMAC1oahVJ6lY4T5-46" target="kJ7FNMAC1oahVJ6lY4T5-44">
          <mxGeometry width="50" height="50" relative="1" as="geometry">
            <mxPoint x="509" y="360" as="sourcePoint" />
            <mxPoint x="480" y="340" as="targetPoint" />
            <Array as="points" />
          </mxGeometry>
        </mxCell>
        <mxCell id="kJ7FNMAC1oahVJ6lY4T5-58" value="&amp;lt;&amp;lt;EXTENDS&amp;gt;&amp;gt;" style="edgeLabel;html=1;align=center;verticalAlign=middle;resizable=0;points=[];" vertex="1" connectable="0" parent="kJ7FNMAC1oahVJ6lY4T5-57">
          <mxGeometry x="-0.1062" y="-4" relative="1" as="geometry">
            <mxPoint as="offset" />
          </mxGeometry>
        </mxCell>
        <mxCell id="kJ7FNMAC1oahVJ6lY4T5-65" style="edgeStyle=orthogonalEdgeStyle;rounded=0;orthogonalLoop=1;jettySize=auto;html=1;" edge="1" parent="1" source="kJ7FNMAC1oahVJ6lY4T5-59">
          <mxGeometry relative="1" as="geometry">
            <mxPoint x="700" y="700" as="targetPoint" />
          </mxGeometry>
        </mxCell>
        <mxCell id="kJ7FNMAC1oahVJ6lY4T5-59" value="Pagar" style="ellipse;whiteSpace=wrap;html=1;" vertex="1" parent="1">
          <mxGeometry x="640" y="545" width="120" height="80" as="geometry" />
        </mxCell>
        <mxCell id="kJ7FNMAC1oahVJ6lY4T5-61" value="" style="endArrow=block;dashed=1;html=1;dashPattern=1 1;strokeWidth=2;rounded=0;exitX=1;exitY=0.5;exitDx=0;exitDy=0;entryX=0.5;entryY=0;entryDx=0;entryDy=0;startArrow=none;startFill=0;endFill=0;" edge="1" parent="1" source="kJ7FNMAC1oahVJ6lY4T5-49" target="kJ7FNMAC1oahVJ6lY4T5-59">
          <mxGeometry width="50" height="50" relative="1" as="geometry">
            <mxPoint x="750" y="380" as="sourcePoint" />
            <mxPoint x="750" y="270" as="targetPoint" />
            <Array as="points">
              <mxPoint x="700" y="290" />
            </Array>
          </mxGeometry>
        </mxCell>
        <mxCell id="kJ7FNMAC1oahVJ6lY4T5-62" value="&amp;lt;&amp;lt;INCLUDE&amp;gt;&amp;gt;" style="edgeLabel;html=1;align=center;verticalAlign=middle;resizable=0;points=[];" vertex="1" connectable="0" parent="kJ7FNMAC1oahVJ6lY4T5-61">
          <mxGeometry x="-0.1062" y="-4" relative="1" as="geometry">
            <mxPoint as="offset" />
          </mxGeometry>
        </mxCell>
        <mxCell id="kJ7FNMAC1oahVJ6lY4T5-63" value="" style="endArrow=none;html=1;strokeWidth=2;rounded=0;startArrow=none;startFill=0;endFill=0;entryX=0;entryY=0.5;entryDx=0;entryDy=0;" edge="1" parent="1" source="kJ7FNMAC1oahVJ6lY4T5-2" target="kJ7FNMAC1oahVJ6lY4T5-59">
          <mxGeometry width="50" height="50" relative="1" as="geometry">
            <mxPoint x="583" y="584" as="sourcePoint" />
            <mxPoint x="414" y="584" as="targetPoint" />
            <Array as="points">
              <mxPoint x="570" y="585" />
            </Array>
          </mxGeometry>
        </mxCell>
        <mxCell id="kJ7FNMAC1oahVJ6lY4T5-66" value="" style="ellipse;whiteSpace=wrap;html=1;" vertex="1" parent="1">
          <mxGeometry x="640" y="700" width="120" height="80" as="geometry" />
        </mxCell>
      </root>
    </mxGraphModel>
  </diagram>
</mxfile>
